<svg width="48" height="21" viewBox="0 0 48 21" fill="none" xmlns="http://www.w3.org/2000/svg">
<path d="M6.11066 9.80627C5.96072 9.80627 5.84826 9.91877 5.82952 10.0875L5.39844 15.3375L5.82952 20.4188C5.84826 20.5688 5.96072 20.7 6.11066 20.7C6.2606 20.7 6.37305 20.5875 6.3918 20.4188L6.8791 15.3375L6.3918 10.0875C6.37305 9.91877 6.24185 9.80627 6.11066 9.80627Z" fill="#F7F3F3"/>
<path d="M8.02179 10.1438C7.85311 10.1438 7.70317 10.2751 7.70317 10.4626L7.30957 15.3376L7.70317 20.4563C7.72191 20.6438 7.85311 20.7751 8.02179 20.7751C8.19047 20.7751 8.32167 20.6438 8.34041 20.4563L8.79023 15.3376L8.34041 10.4626C8.32167 10.2751 8.19047 10.1438 8.02179 10.1438Z" fill="#F7F3F3"/>
<path d="M2.32415 10.8187C2.23044 10.8187 2.13672 10.8937 2.11798 11.0062L1.64941 15.3187L2.11798 19.5375C2.13672 19.65 2.21169 19.725 2.32415 19.725C2.41786 19.725 2.51158 19.65 2.53032 19.5375L3.07385 15.3187L2.53032 11.0062C2.49283 10.9125 2.41786 10.8187 2.32415 10.8187Z" fill="#F7F3F3"/>
<path d="M0.543534 12.4688C0.449821 12.4688 0.356108 12.5437 0.356108 12.6562L0 15.3375L0.356108 17.9625C0.374851 18.075 0.449821 18.15 0.543534 18.15C0.637247 18.15 0.712217 18.075 0.73096 17.9625L1.1433 15.3375L0.73096 12.675C0.712217 12.5625 0.637247 12.4688 0.543534 12.4688Z" fill="#F7F3F3"/>
<path d="M11.9022 5.19373C11.6773 5.19373 11.5086 5.36248 11.4899 5.58748L11.1338 15.3375L11.4899 20.4375C11.5086 20.6625 11.6773 20.8312 11.9022 20.8312C12.1271 20.8312 12.2958 20.6625 12.3146 20.4375L12.7082 15.3375L12.3146 5.58748C12.2958 5.36248 12.1084 5.19373 11.9022 5.19373Z" fill="#F7F3F3"/>
<path d="M4.19738 9.97498C4.06618 9.97498 3.97247 10.0687 3.95373 10.2187L3.50391 15.3375L3.95373 20.2687C3.97247 20.4 4.06618 20.5125 4.19738 20.5125C4.32858 20.5125 4.42229 20.4187 4.44104 20.2875L4.94708 15.3562L4.44104 10.2375C4.42229 10.0875 4.32858 9.97498 4.19738 9.97498Z" fill="#F7F3F3"/>
<path d="M9.95264 7.05005C9.76522 7.05005 9.59653 7.20005 9.59653 7.4063L9.22168 15.3376L9.59653 20.4563C9.61527 20.6625 9.76522 20.8125 9.95264 20.8125C10.1401 20.8125 10.3088 20.6625 10.3088 20.4563L10.7398 15.3376L10.3088 7.4063C10.3088 7.20005 10.1401 7.05005 9.95264 7.05005Z" fill="#F7F3F3"/>
<path d="M21.854 2.53125C21.5166 2.53125 21.2542 2.79375 21.2542 3.13125L21.0293 15.3188L21.2542 20.2125C21.2542 20.55 21.5353 20.8125 21.854 20.8125C22.1913 20.8125 22.4537 20.5313 22.4537 20.2125L22.7161 15.3188L22.4537 3.13125C22.4725 2.8125 22.1913 2.53125 21.854 2.53125Z" fill="#F7F3F3"/>
<path d="M13.8507 4.3313C13.607 4.3313 13.4196 4.5188 13.4008 4.7813L13.0635 15.3376L13.4008 20.3813C13.4008 20.625 13.607 20.8125 13.8507 20.8125C14.0943 20.8125 14.2817 20.625 14.3005 20.3625L14.6753 15.3188L14.3005 4.76255C14.3005 4.53755 14.0943 4.3313 13.8507 4.3313Z" fill="#F7F3F3"/>
<path d="M42.0775 9.0375C41.2715 9.0375 40.5031 9.20625 39.7909 9.4875C39.3223 4.1625 34.8616 0 29.4262 0C28.0955 0 26.8023 0.262503 25.659 0.712503C25.2091 0.881253 25.0967 1.06875 25.0967 1.40625V20.1375C25.0967 20.4938 25.3778 20.7938 25.7339 20.8313C25.7527 20.8313 41.9837 20.8313 42.0962 20.8313C45.3574 20.8313 48.0001 18.1875 48.0001 14.925C47.9814 11.6813 45.3387 9.0375 42.0775 9.0375Z" fill="#F7F3F3"/>
<path d="M23.8783 1.38745C23.5222 1.38745 23.2411 1.68745 23.2224 2.0437L22.96 15.3375L23.2224 20.1562C23.2224 20.5124 23.5222 20.7937 23.8783 20.7937C24.2345 20.7937 24.5156 20.4937 24.5343 20.1375L24.8155 15.2999L24.5343 2.0062C24.5156 1.68745 24.2345 1.38745 23.8783 1.38745Z" fill="#F7F3F3"/>
<path d="M15.838 3.9375C15.5756 3.9375 15.3694 4.14375 15.3507 4.425L15.0508 15.3375L15.3507 20.3438C15.3507 20.6062 15.5756 20.8313 15.838 20.8313C16.1004 20.8313 16.3065 20.625 16.3253 20.3438L16.6626 15.3375L16.3253 4.425C16.3065 4.14375 16.1004 3.9375 15.838 3.9375Z" fill="#F7F3F3"/>
<path d="M17.8245 4.18127C17.5433 4.18127 17.2997 4.40627 17.2997 4.70627L17.0186 15.3375L17.2997 20.3063C17.2997 20.6063 17.5433 20.8313 17.8245 20.8313C18.1056 20.8313 18.3493 20.6063 18.3493 20.3063L18.6679 15.3375L18.3493 4.70627C18.3493 4.40627 18.1244 4.18127 17.8245 4.18127Z" fill="#F7F3F3"/>
<path d="M19.8296 4.5188C19.5109 4.5188 19.2673 4.76255 19.2673 5.0813L19.0049 15.3376L19.2673 20.2688C19.2673 20.5875 19.5297 20.8313 19.8296 20.8313C20.1482 20.8313 20.3918 20.5875 20.3918 20.2688L20.673 15.3376L20.3918 5.0813C20.3918 4.7813 20.1482 4.5188 19.8296 4.5188Z" fill="#F7F3F3"/>
</svg>
